<mxfile host="app.diagrams.net" agent="Mozilla/5.0 (X11; Linux x86_64) AppleWebKit/537.36 (KHTML, like Gecko) Chrome/107.0.0.0 Safari/537.36" version="24.7.14">
  <diagram name="Page-1" id="x7aqIDVy17dH3aTkpOdf">
    <mxGraphModel dx="3088" dy="675" grid="1" gridSize="10" guides="1" tooltips="1" connect="1" arrows="1" fold="1" page="1" pageScale="1" pageWidth="1654" pageHeight="1169" math="0" shadow="0">
      <root>
        <mxCell id="0" />
        <mxCell id="1" parent="0" />
        <mxCell id="oGMS3Zo7ZqheVyag8jF_-1" value="&lt;font style=&quot;font-size: 50px;&quot;&gt;Project ERD&lt;/font&gt;" style="text;html=1;align=center;verticalAlign=middle;whiteSpace=wrap;rounded=0;" parent="1" vertex="1">
          <mxGeometry x="710" y="20" width="310" height="110" as="geometry" />
        </mxCell>
        <mxCell id="oGMS3Zo7ZqheVyag8jF_-89" value="" style="group" parent="1" vertex="1" connectable="0">
          <mxGeometry x="780" y="180" width="150" height="120" as="geometry" />
        </mxCell>
        <mxCell id="oGMS3Zo7ZqheVyag8jF_-36" value="Follow Model" style="swimlane;fontStyle=0;childLayout=stackLayout;horizontal=1;startSize=30;horizontalStack=0;resizeParent=1;resizeParentMax=0;resizeLast=0;collapsible=1;marginBottom=0;whiteSpace=wrap;html=1;container=0;" parent="oGMS3Zo7ZqheVyag8jF_-89" vertex="1">
          <mxGeometry width="150" height="120" as="geometry" />
        </mxCell>
        <mxCell id="oGMS3Zo7ZqheVyag8jF_-41" value="User: foreign key" style="text;strokeColor=default;fillColor=none;align=left;verticalAlign=middle;spacingLeft=4;spacingRight=4;overflow=hidden;points=[[0,0.5],[1,0.5]];portConstraint=eastwest;rotatable=0;whiteSpace=wrap;html=1;" parent="oGMS3Zo7ZqheVyag8jF_-89" vertex="1">
          <mxGeometry y="30" width="150" height="30" as="geometry" />
        </mxCell>
        <mxCell id="oGMS3Zo7ZqheVyag8jF_-42" value="Following: foreign key" style="text;strokeColor=default;fillColor=none;align=left;verticalAlign=middle;spacingLeft=4;spacingRight=4;overflow=hidden;points=[[0,0.5],[1,0.5]];portConstraint=eastwest;rotatable=0;whiteSpace=wrap;html=1;" parent="oGMS3Zo7ZqheVyag8jF_-89" vertex="1">
          <mxGeometry y="60" width="150" height="30" as="geometry" />
        </mxCell>
        <mxCell id="oGMS3Zo7ZqheVyag8jF_-43" value="Following Date: datetime" style="text;strokeColor=none;fillColor=none;align=left;verticalAlign=middle;spacingLeft=4;spacingRight=4;overflow=hidden;points=[[0,0.5],[1,0.5]];portConstraint=eastwest;rotatable=0;whiteSpace=wrap;html=1;" parent="oGMS3Zo7ZqheVyag8jF_-89" vertex="1">
          <mxGeometry y="90" width="150" height="30" as="geometry" />
        </mxCell>
        <mxCell id="oGMS3Zo7ZqheVyag8jF_-91" value="" style="edgeStyle=orthogonalEdgeStyle;rounded=0;orthogonalLoop=1;jettySize=auto;html=1;" parent="1" edge="1">
          <mxGeometry relative="1" as="geometry">
            <mxPoint x="930" y="190" as="sourcePoint" />
            <mxPoint x="1050" y="190" as="targetPoint" />
            <Array as="points">
              <mxPoint x="1030" y="190" />
              <mxPoint x="1030" y="190" />
            </Array>
          </mxGeometry>
        </mxCell>
        <mxCell id="oGMS3Zo7ZqheVyag8jF_-92" value="Unfollow removes the stored followed data in db" style="edgeLabel;html=1;align=center;verticalAlign=middle;resizable=0;points=[];fontSize=15;" parent="oGMS3Zo7ZqheVyag8jF_-91" vertex="1" connectable="0">
          <mxGeometry x="0.9926" y="-1" relative="1" as="geometry">
            <mxPoint x="70" y="-21" as="offset" />
          </mxGeometry>
        </mxCell>
        <mxCell id="oGMS3Zo7ZqheVyag8jF_-93" value="" style="group" parent="1" vertex="1" connectable="0">
          <mxGeometry x="620" y="520" width="140" height="120" as="geometry" />
        </mxCell>
        <mxCell id="oGMS3Zo7ZqheVyag8jF_-65" value="Like Model" style="swimlane;fontStyle=0;childLayout=stackLayout;horizontal=1;startSize=30;horizontalStack=0;resizeParent=1;resizeParentMax=0;resizeLast=0;collapsible=1;marginBottom=0;whiteSpace=wrap;html=1;container=0;" parent="oGMS3Zo7ZqheVyag8jF_-93" vertex="1">
          <mxGeometry width="140" height="120" as="geometry" />
        </mxCell>
        <mxCell id="oGMS3Zo7ZqheVyag8jF_-70" value="Author: foreign key" style="text;strokeColor=default;fillColor=none;align=left;verticalAlign=middle;spacingLeft=4;spacingRight=4;overflow=hidden;points=[[0,0.5],[1,0.5]];portConstraint=eastwest;rotatable=0;whiteSpace=wrap;html=1;" parent="oGMS3Zo7ZqheVyag8jF_-93" vertex="1">
          <mxGeometry y="30" width="140" height="30" as="geometry" />
        </mxCell>
        <mxCell id="oGMS3Zo7ZqheVyag8jF_-71" value="Post: foreign key" style="text;strokeColor=default;fillColor=none;align=left;verticalAlign=middle;spacingLeft=4;spacingRight=4;overflow=hidden;points=[[0,0.5],[1,0.5]];portConstraint=eastwest;rotatable=0;whiteSpace=wrap;html=1;" parent="oGMS3Zo7ZqheVyag8jF_-93" vertex="1">
          <mxGeometry y="60" width="140" height="30" as="geometry" />
        </mxCell>
        <mxCell id="oGMS3Zo7ZqheVyag8jF_-72" value="Liked Date: datetime" style="text;strokeColor=none;fillColor=none;align=left;verticalAlign=middle;spacingLeft=4;spacingRight=4;overflow=hidden;points=[[0,0.5],[1,0.5]];portConstraint=eastwest;rotatable=0;whiteSpace=wrap;html=1;" parent="oGMS3Zo7ZqheVyag8jF_-93" vertex="1">
          <mxGeometry y="90" width="140" height="30" as="geometry" />
        </mxCell>
        <mxCell id="oGMS3Zo7ZqheVyag8jF_-106" value="&lt;span style=&quot;color: rgb(0, 0, 0); font-family: Helvetica; font-size: 15px; font-style: normal; font-variant-ligatures: normal; font-variant-caps: normal; font-weight: 400; letter-spacing: normal; orphans: 2; text-align: center; text-indent: 0px; text-transform: none; widows: 2; word-spacing: 0px; -webkit-text-stroke-width: 0px; white-space: nowrap; background-color: rgb(255, 255, 255); text-decoration-thickness: initial; text-decoration-style: initial; text-decoration-color: initial; display: inline !important; float: none;&quot;&gt;Unlike or rm like -&amp;gt; removes the stored like data in db&lt;/span&gt;" style="edgeStyle=orthogonalEdgeStyle;rounded=0;orthogonalLoop=1;jettySize=auto;html=1;exitX=1.021;exitY=0.133;exitDx=0;exitDy=0;exitPerimeter=0;" parent="1" source="oGMS3Zo7ZqheVyag8jF_-65" edge="1">
          <mxGeometry x="1" y="82" relative="1" as="geometry">
            <mxPoint x="741" y="518" as="sourcePoint" />
            <mxPoint x="901" y="536" as="targetPoint" />
            <mxPoint x="80" y="64" as="offset" />
          </mxGeometry>
        </mxCell>
        <mxCell id="oGMS3Zo7ZqheVyag8jF_-118" value="" style="group" parent="1" vertex="1" connectable="0">
          <mxGeometry x="80" y="40" width="140" height="270" as="geometry" />
        </mxCell>
        <mxCell id="oGMS3Zo7ZqheVyag8jF_-114" value="" style="group" parent="oGMS3Zo7ZqheVyag8jF_-118" vertex="1" connectable="0">
          <mxGeometry width="140" height="240" as="geometry" />
        </mxCell>
        <mxCell id="oGMS3Zo7ZqheVyag8jF_-79" value="Comment Model" style="swimlane;fontStyle=0;childLayout=stackLayout;horizontal=1;startSize=30;horizontalStack=0;resizeParent=1;resizeParentMax=0;resizeLast=0;collapsible=1;marginBottom=0;whiteSpace=wrap;html=1;container=0;" parent="oGMS3Zo7ZqheVyag8jF_-114" vertex="1">
          <mxGeometry width="140" height="120" as="geometry" />
        </mxCell>
        <mxCell id="oGMS3Zo7ZqheVyag8jF_-80" value="Author: foreign key" style="text;align=left;verticalAlign=middle;spacingLeft=4;spacingRight=4;overflow=hidden;points=[[0,0.5],[1,0.5]];portConstraint=eastwest;rotatable=0;whiteSpace=wrap;html=1;shadow=0;rounded=0;strokeWidth=1;strokeColor=default;container=0;" parent="oGMS3Zo7ZqheVyag8jF_-114" vertex="1">
          <mxGeometry y="120" width="140" height="30" as="geometry" />
        </mxCell>
        <mxCell id="oGMS3Zo7ZqheVyag8jF_-81" value="Date Created: datetime" style="text;align=left;verticalAlign=middle;spacingLeft=4;spacingRight=4;overflow=hidden;points=[[0,0.5],[1,0.5]];portConstraint=eastwest;rotatable=0;whiteSpace=wrap;html=1;shadow=0;rounded=0;strokeWidth=1;strokeColor=default;container=0;" parent="oGMS3Zo7ZqheVyag8jF_-114" vertex="1">
          <mxGeometry y="150" width="140" height="30" as="geometry" />
        </mxCell>
        <mxCell id="oGMS3Zo7ZqheVyag8jF_-82" value="Date Updated: datetime" style="text;align=left;verticalAlign=middle;spacingLeft=4;spacingRight=4;overflow=hidden;points=[[0,0.5],[1,0.5]];portConstraint=eastwest;rotatable=0;whiteSpace=wrap;html=1;shadow=0;rounded=0;strokeWidth=1;strokeColor=default;container=0;" parent="oGMS3Zo7ZqheVyag8jF_-114" vertex="1">
          <mxGeometry y="180" width="140" height="30" as="geometry" />
        </mxCell>
        <mxCell id="oGMS3Zo7ZqheVyag8jF_-84" value="Title: charfield" style="text;strokeColor=default;fillColor=none;align=left;verticalAlign=middle;spacingLeft=4;spacingRight=4;overflow=hidden;points=[[0,0.5],[1,0.5]];portConstraint=eastwest;rotatable=0;whiteSpace=wrap;html=1;" parent="oGMS3Zo7ZqheVyag8jF_-114" vertex="1">
          <mxGeometry y="30" width="140" height="30" as="geometry" />
        </mxCell>
        <mxCell id="oGMS3Zo7ZqheVyag8jF_-85" value="Description: text" style="text;strokeColor=default;fillColor=none;align=left;verticalAlign=middle;spacingLeft=4;spacingRight=4;overflow=hidden;points=[[0,0.5],[1,0.5]];portConstraint=eastwest;rotatable=0;whiteSpace=wrap;html=1;" parent="oGMS3Zo7ZqheVyag8jF_-114" vertex="1">
          <mxGeometry y="60" width="140" height="30" as="geometry" />
        </mxCell>
        <mxCell id="oGMS3Zo7ZqheVyag8jF_-86" value="Reply : optional" style="text;strokeColor=none;fillColor=none;align=left;verticalAlign=middle;spacingLeft=4;spacingRight=4;overflow=hidden;points=[[0,0.5],[1,0.5]];portConstraint=eastwest;rotatable=0;whiteSpace=wrap;html=1;" parent="oGMS3Zo7ZqheVyag8jF_-114" vertex="1">
          <mxGeometry y="90" width="140" height="30" as="geometry" />
        </mxCell>
        <mxCell id="oGMS3Zo7ZqheVyag8jF_-113" value="Post: pk" style="text;align=left;verticalAlign=middle;spacingLeft=4;spacingRight=4;overflow=hidden;points=[[0,0.5],[1,0.5]];portConstraint=eastwest;rotatable=0;whiteSpace=wrap;html=1;shadow=0;rounded=0;strokeWidth=1;strokeColor=default;container=0;" parent="oGMS3Zo7ZqheVyag8jF_-114" vertex="1">
          <mxGeometry y="210" width="140" height="30" as="geometry" />
        </mxCell>
        <mxCell id="oGMS3Zo7ZqheVyag8jF_-117" value="Id: pk" style="text;align=left;verticalAlign=middle;spacingLeft=4;spacingRight=4;overflow=hidden;points=[[0,0.5],[1,0.5]];portConstraint=eastwest;rotatable=0;whiteSpace=wrap;html=1;shadow=0;rounded=0;strokeWidth=1;strokeColor=default;container=0;" parent="oGMS3Zo7ZqheVyag8jF_-118" vertex="1">
          <mxGeometry y="240" width="140" height="30" as="geometry" />
        </mxCell>
        <mxCell id="oGMS3Zo7ZqheVyag8jF_-120" value="" style="edgeStyle=orthogonalEdgeStyle;rounded=0;orthogonalLoop=1;jettySize=auto;html=1;entryX=0;entryY=0.5;entryDx=0;entryDy=0;exitX=0;exitY=0.5;exitDx=0;exitDy=0;" parent="1" source="oGMS3Zo7ZqheVyag8jF_-113" target="oGMS3Zo7ZqheVyag8jF_-123" edge="1">
          <mxGeometry relative="1" as="geometry">
            <mxPoint x="220" y="345" as="targetPoint" />
            <Array as="points">
              <mxPoint x="70" y="265" />
              <mxPoint x="70" y="555" />
            </Array>
          </mxGeometry>
        </mxCell>
        <mxCell id="oGMS3Zo7ZqheVyag8jF_-122" value="" style="group" parent="1" vertex="1" connectable="0">
          <mxGeometry x="480" y="40" width="140" height="280" as="geometry" />
        </mxCell>
        <mxCell id="oGMS3Zo7ZqheVyag8jF_-16" value="" style="group" parent="oGMS3Zo7ZqheVyag8jF_-122" vertex="1" connectable="0">
          <mxGeometry width="140" height="240" as="geometry" />
        </mxCell>
        <mxCell id="oGMS3Zo7ZqheVyag8jF_-2" value="User Model" style="swimlane;fontStyle=0;childLayout=stackLayout;horizontal=1;startSize=30;horizontalStack=0;resizeParent=1;resizeParentMax=0;resizeLast=0;collapsible=1;marginBottom=0;whiteSpace=wrap;html=1;container=0;" parent="oGMS3Zo7ZqheVyag8jF_-16" vertex="1">
          <mxGeometry width="140" height="120" as="geometry">
            <mxRectangle width="100" height="30" as="alternateBounds" />
          </mxGeometry>
        </mxCell>
        <mxCell id="oGMS3Zo7ZqheVyag8jF_-11" value="Email: emailfield" style="text;align=left;verticalAlign=middle;spacingLeft=4;spacingRight=4;overflow=hidden;points=[[0,0.5],[1,0.5]];portConstraint=eastwest;rotatable=0;whiteSpace=wrap;html=1;shadow=0;rounded=0;strokeWidth=1;strokeColor=default;container=0;" parent="oGMS3Zo7ZqheVyag8jF_-16" vertex="1">
          <mxGeometry y="120" width="140" height="30" as="geometry" />
        </mxCell>
        <mxCell id="oGMS3Zo7ZqheVyag8jF_-12" value="Is Staff: boolean" style="text;align=left;verticalAlign=middle;spacingLeft=4;spacingRight=4;overflow=hidden;points=[[0,0.5],[1,0.5]];portConstraint=eastwest;rotatable=0;whiteSpace=wrap;html=1;shadow=0;rounded=0;strokeWidth=1;strokeColor=default;container=0;" parent="oGMS3Zo7ZqheVyag8jF_-16" vertex="1">
          <mxGeometry y="150" width="140" height="30" as="geometry" />
        </mxCell>
        <mxCell id="oGMS3Zo7ZqheVyag8jF_-13" value="Is Active: boolean" style="text;align=left;verticalAlign=middle;spacingLeft=4;spacingRight=4;overflow=hidden;points=[[0,0.5],[1,0.5]];portConstraint=eastwest;rotatable=0;whiteSpace=wrap;html=1;shadow=0;rounded=0;strokeWidth=1;strokeColor=default;container=0;" parent="oGMS3Zo7ZqheVyag8jF_-16" vertex="1">
          <mxGeometry y="180" width="140" height="30" as="geometry" />
        </mxCell>
        <mxCell id="oGMS3Zo7ZqheVyag8jF_-14" value="Date Joined: datetime" style="text;align=left;verticalAlign=middle;spacingLeft=4;spacingRight=4;overflow=hidden;points=[[0,0.5],[1,0.5]];portConstraint=eastwest;rotatable=0;whiteSpace=wrap;html=1;shadow=0;rounded=0;strokeWidth=1;strokeColor=default;container=0;" parent="oGMS3Zo7ZqheVyag8jF_-16" vertex="1">
          <mxGeometry y="210" width="140" height="30" as="geometry" />
        </mxCell>
        <mxCell id="oGMS3Zo7ZqheVyag8jF_-3" value="Username: charfield" style="text;strokeColor=default;fillColor=none;align=left;verticalAlign=middle;spacingLeft=4;spacingRight=4;overflow=hidden;points=[[0,0.5],[1,0.5]];portConstraint=eastwest;rotatable=0;whiteSpace=wrap;html=1;" parent="oGMS3Zo7ZqheVyag8jF_-16" vertex="1">
          <mxGeometry y="30" width="140" height="30" as="geometry" />
        </mxCell>
        <mxCell id="oGMS3Zo7ZqheVyag8jF_-4" value="First Name: charfield" style="text;strokeColor=default;fillColor=none;align=left;verticalAlign=middle;spacingLeft=4;spacingRight=4;overflow=hidden;points=[[0,0.5],[1,0.5]];portConstraint=eastwest;rotatable=0;whiteSpace=wrap;html=1;" parent="oGMS3Zo7ZqheVyag8jF_-16" vertex="1">
          <mxGeometry y="60" width="140" height="30" as="geometry" />
        </mxCell>
        <mxCell id="oGMS3Zo7ZqheVyag8jF_-5" value="Last Name: charfield" style="text;strokeColor=none;fillColor=none;align=left;verticalAlign=middle;spacingLeft=4;spacingRight=4;overflow=hidden;points=[[0,0.5],[1,0.5]];portConstraint=eastwest;rotatable=0;whiteSpace=wrap;html=1;" parent="oGMS3Zo7ZqheVyag8jF_-16" vertex="1">
          <mxGeometry y="90" width="140" height="30" as="geometry" />
        </mxCell>
        <mxCell id="oGMS3Zo7ZqheVyag8jF_-121" value="Id: pk" style="text;align=left;verticalAlign=middle;spacingLeft=4;spacingRight=4;overflow=hidden;points=[[0,0.5],[1,0.5]];portConstraint=eastwest;rotatable=0;whiteSpace=wrap;html=1;shadow=0;rounded=0;strokeWidth=1;strokeColor=default;container=0;" parent="oGMS3Zo7ZqheVyag8jF_-122" vertex="1">
          <mxGeometry y="240" width="140" height="30" as="geometry" />
        </mxCell>
        <mxCell id="oGMS3Zo7ZqheVyag8jF_-126" value="" style="edgeStyle=orthogonalEdgeStyle;rounded=0;orthogonalLoop=1;jettySize=auto;html=1;entryX=0;entryY=0.5;entryDx=0;entryDy=0;" parent="1" source="oGMS3Zo7ZqheVyag8jF_-19" target="oGMS3Zo7ZqheVyag8jF_-121" edge="1">
          <mxGeometry relative="1" as="geometry">
            <mxPoint x="160" y="545" as="targetPoint" />
          </mxGeometry>
        </mxCell>
        <mxCell id="oGMS3Zo7ZqheVyag8jF_-128" value="" style="edgeStyle=orthogonalEdgeStyle;rounded=0;orthogonalLoop=1;jettySize=auto;html=1;entryX=0;entryY=0.5;entryDx=0;entryDy=0;" parent="1" source="oGMS3Zo7ZqheVyag8jF_-80" target="oGMS3Zo7ZqheVyag8jF_-121" edge="1">
          <mxGeometry relative="1" as="geometry">
            <mxPoint x="370" y="255" as="targetPoint" />
            <Array as="points">
              <mxPoint x="460" y="175" />
              <mxPoint x="460" y="315" />
            </Array>
          </mxGeometry>
        </mxCell>
        <mxCell id="oGMS3Zo7ZqheVyag8jF_-130" value="" style="edgeStyle=orthogonalEdgeStyle;rounded=0;orthogonalLoop=1;jettySize=auto;html=1;entryX=0.907;entryY=1;entryDx=0;entryDy=0;entryPerimeter=0;" parent="1" source="oGMS3Zo7ZqheVyag8jF_-41" target="oGMS3Zo7ZqheVyag8jF_-121" edge="1">
          <mxGeometry relative="1" as="geometry">
            <mxPoint x="670" y="225" as="targetPoint" />
            <Array as="points">
              <mxPoint x="700" y="225" />
              <mxPoint x="700" y="350" />
              <mxPoint x="607" y="350" />
            </Array>
          </mxGeometry>
        </mxCell>
        <mxCell id="oGMS3Zo7ZqheVyag8jF_-132" value="" style="edgeStyle=orthogonalEdgeStyle;rounded=0;orthogonalLoop=1;jettySize=auto;html=1;entryX=0.571;entryY=1.1;entryDx=0;entryDy=0;entryPerimeter=0;" parent="1" target="oGMS3Zo7ZqheVyag8jF_-121" edge="1">
          <mxGeometry relative="1" as="geometry">
            <mxPoint x="780" y="257" as="sourcePoint" />
            <mxPoint x="560" y="330" as="targetPoint" />
            <Array as="points">
              <mxPoint x="730" y="257" />
              <mxPoint x="730" y="380" />
              <mxPoint x="560" y="380" />
            </Array>
          </mxGeometry>
        </mxCell>
        <mxCell id="oGMS3Zo7ZqheVyag8jF_-137" value="" style="edgeStyle=orthogonalEdgeStyle;rounded=0;orthogonalLoop=1;jettySize=auto;html=1;entryX=0.729;entryY=1.1;entryDx=0;entryDy=0;entryPerimeter=0;" parent="1" source="oGMS3Zo7ZqheVyag8jF_-70" target="oGMS3Zo7ZqheVyag8jF_-121" edge="1">
          <mxGeometry relative="1" as="geometry">
            <mxPoint x="580" y="375" as="targetPoint" />
            <Array as="points">
              <mxPoint x="582" y="565" />
            </Array>
          </mxGeometry>
        </mxCell>
        <mxCell id="oGMS3Zo7ZqheVyag8jF_-139" value="" style="edgeStyle=orthogonalEdgeStyle;rounded=0;orthogonalLoop=1;jettySize=auto;html=1;" parent="1" source="oGMS3Zo7ZqheVyag8jF_-71" target="oGMS3Zo7ZqheVyag8jF_-123" edge="1">
          <mxGeometry relative="1" as="geometry">
            <mxPoint x="670" y="405" as="targetPoint" />
            <Array as="points">
              <mxPoint x="430" y="595" />
              <mxPoint x="430" y="645" />
              <mxPoint x="280" y="645" />
            </Array>
          </mxGeometry>
        </mxCell>
        <mxCell id="oGMS3Zo7ZqheVyag8jF_-144" value="" style="group" parent="1" vertex="1" connectable="0">
          <mxGeometry x="550" y="780" width="140" height="270" as="geometry" />
        </mxCell>
        <mxCell id="oGMS3Zo7ZqheVyag8jF_-145" value="" style="group" parent="oGMS3Zo7ZqheVyag8jF_-144" vertex="1" connectable="0">
          <mxGeometry width="140" height="240" as="geometry" />
        </mxCell>
        <mxCell id="oGMS3Zo7ZqheVyag8jF_-146" value="Log System" style="swimlane;fontStyle=0;childLayout=stackLayout;horizontal=1;startSize=30;horizontalStack=0;resizeParent=1;resizeParentMax=0;resizeLast=0;collapsible=1;marginBottom=0;whiteSpace=wrap;html=1;container=0;" parent="oGMS3Zo7ZqheVyag8jF_-145" vertex="1">
          <mxGeometry width="140" height="120" as="geometry" />
        </mxCell>
        <mxCell id="oGMS3Zo7ZqheVyag8jF_-147" value="" style="text;align=left;verticalAlign=middle;spacingLeft=4;spacingRight=4;overflow=hidden;points=[[0,0.5],[1,0.5]];portConstraint=eastwest;rotatable=0;whiteSpace=wrap;html=1;shadow=0;rounded=0;strokeWidth=1;strokeColor=default;container=0;" parent="oGMS3Zo7ZqheVyag8jF_-145" vertex="1">
          <mxGeometry y="120" width="140" height="30" as="geometry" />
        </mxCell>
        <mxCell id="oGMS3Zo7ZqheVyag8jF_-148" value="" style="text;align=left;verticalAlign=middle;spacingLeft=4;spacingRight=4;overflow=hidden;points=[[0,0.5],[1,0.5]];portConstraint=eastwest;rotatable=0;whiteSpace=wrap;html=1;shadow=0;rounded=0;strokeWidth=1;strokeColor=default;container=0;" parent="oGMS3Zo7ZqheVyag8jF_-145" vertex="1">
          <mxGeometry y="150" width="140" height="30" as="geometry" />
        </mxCell>
        <mxCell id="oGMS3Zo7ZqheVyag8jF_-149" value="" style="text;align=left;verticalAlign=middle;spacingLeft=4;spacingRight=4;overflow=hidden;points=[[0,0.5],[1,0.5]];portConstraint=eastwest;rotatable=0;whiteSpace=wrap;html=1;shadow=0;rounded=0;strokeWidth=1;strokeColor=default;container=0;" parent="oGMS3Zo7ZqheVyag8jF_-145" vertex="1">
          <mxGeometry y="180" width="140" height="30" as="geometry" />
        </mxCell>
        <mxCell id="oGMS3Zo7ZqheVyag8jF_-150" value="" style="text;align=left;verticalAlign=middle;spacingLeft=4;spacingRight=4;overflow=hidden;points=[[0,0.5],[1,0.5]];portConstraint=eastwest;rotatable=0;whiteSpace=wrap;html=1;shadow=0;rounded=0;strokeWidth=1;strokeColor=default;container=0;" parent="oGMS3Zo7ZqheVyag8jF_-145" vertex="1">
          <mxGeometry y="210" width="140" height="30" as="geometry" />
        </mxCell>
        <mxCell id="oGMS3Zo7ZqheVyag8jF_-151" value="" style="text;strokeColor=default;fillColor=none;align=left;verticalAlign=middle;spacingLeft=4;spacingRight=4;overflow=hidden;points=[[0,0.5],[1,0.5]];portConstraint=eastwest;rotatable=0;whiteSpace=wrap;html=1;" parent="oGMS3Zo7ZqheVyag8jF_-145" vertex="1">
          <mxGeometry y="30" width="140" height="30" as="geometry" />
        </mxCell>
        <mxCell id="oGMS3Zo7ZqheVyag8jF_-152" value="" style="text;strokeColor=default;fillColor=none;align=left;verticalAlign=middle;spacingLeft=4;spacingRight=4;overflow=hidden;points=[[0,0.5],[1,0.5]];portConstraint=eastwest;rotatable=0;whiteSpace=wrap;html=1;" parent="oGMS3Zo7ZqheVyag8jF_-145" vertex="1">
          <mxGeometry y="60" width="140" height="30" as="geometry" />
        </mxCell>
        <mxCell id="oGMS3Zo7ZqheVyag8jF_-154" value="" style="text;align=left;verticalAlign=middle;spacingLeft=4;spacingRight=4;overflow=hidden;points=[[0,0.5],[1,0.5]];portConstraint=eastwest;rotatable=0;whiteSpace=wrap;html=1;shadow=0;rounded=0;strokeWidth=1;strokeColor=default;container=0;" parent="oGMS3Zo7ZqheVyag8jF_-144" vertex="1">
          <mxGeometry y="240" width="140" height="30" as="geometry" />
        </mxCell>
        <mxCell id="oGMS3Zo7ZqheVyag8jF_-155" value="" style="endArrow=none;dashed=1;html=1;rounded=0;" parent="1" edge="1">
          <mxGeometry width="50" height="50" relative="1" as="geometry">
            <mxPoint x="-10" y="720" as="sourcePoint" />
            <mxPoint x="1446" y="720" as="targetPoint" />
          </mxGeometry>
        </mxCell>
        <mxCell id="oGMS3Zo7ZqheVyag8jF_-17" value="" style="group" parent="1" vertex="1" connectable="0">
          <mxGeometry x="210" y="330" width="140" height="240" as="geometry" />
        </mxCell>
        <mxCell id="7i9hANt-WhcfdzAU3B-O-6" value="" style="group" vertex="1" connectable="0" parent="oGMS3Zo7ZqheVyag8jF_-17">
          <mxGeometry width="140" height="240" as="geometry" />
        </mxCell>
        <mxCell id="oGMS3Zo7ZqheVyag8jF_-18" value="Post Model" style="swimlane;fontStyle=0;childLayout=stackLayout;horizontal=1;startSize=30;horizontalStack=0;resizeParent=1;resizeParentMax=0;resizeLast=0;collapsible=1;marginBottom=0;whiteSpace=wrap;html=1;container=0;" parent="7i9hANt-WhcfdzAU3B-O-6" vertex="1">
          <mxGeometry width="140" height="120" as="geometry" />
        </mxCell>
        <mxCell id="oGMS3Zo7ZqheVyag8jF_-19" value="Author: foreign key" style="text;align=left;verticalAlign=middle;spacingLeft=4;spacingRight=4;overflow=hidden;points=[[0,0.5],[1,0.5]];portConstraint=eastwest;rotatable=0;whiteSpace=wrap;html=1;shadow=0;rounded=0;strokeWidth=1;strokeColor=default;container=0;" parent="7i9hANt-WhcfdzAU3B-O-6" vertex="1">
          <mxGeometry y="120" width="140" height="30" as="geometry" />
        </mxCell>
        <mxCell id="oGMS3Zo7ZqheVyag8jF_-20" value="Date Created" style="text;align=left;verticalAlign=middle;spacingLeft=4;spacingRight=4;overflow=hidden;points=[[0,0.5],[1,0.5]];portConstraint=eastwest;rotatable=0;whiteSpace=wrap;html=1;shadow=0;rounded=0;strokeWidth=1;strokeColor=default;container=0;" parent="7i9hANt-WhcfdzAU3B-O-6" vertex="1">
          <mxGeometry y="150" width="140" height="30" as="geometry" />
        </mxCell>
        <mxCell id="oGMS3Zo7ZqheVyag8jF_-21" value="Date Updated" style="text;align=left;verticalAlign=middle;spacingLeft=4;spacingRight=4;overflow=hidden;points=[[0,0.5],[1,0.5]];portConstraint=eastwest;rotatable=0;whiteSpace=wrap;html=1;shadow=0;rounded=0;strokeWidth=1;strokeColor=default;container=0;" parent="7i9hANt-WhcfdzAU3B-O-6" vertex="1">
          <mxGeometry y="180" width="140" height="30" as="geometry" />
        </mxCell>
        <mxCell id="oGMS3Zo7ZqheVyag8jF_-23" value="Title: charfield" style="text;strokeColor=default;fillColor=none;align=left;verticalAlign=middle;spacingLeft=4;spacingRight=4;overflow=hidden;points=[[0,0.5],[1,0.5]];portConstraint=eastwest;rotatable=0;whiteSpace=wrap;html=1;" parent="7i9hANt-WhcfdzAU3B-O-6" vertex="1">
          <mxGeometry y="30" width="140" height="30" as="geometry" />
        </mxCell>
        <mxCell id="oGMS3Zo7ZqheVyag8jF_-24" value="Pic: imagefield" style="text;strokeColor=default;fillColor=none;align=left;verticalAlign=middle;spacingLeft=4;spacingRight=4;overflow=hidden;points=[[0,0.5],[1,0.5]];portConstraint=eastwest;rotatable=0;whiteSpace=wrap;html=1;" parent="7i9hANt-WhcfdzAU3B-O-6" vertex="1">
          <mxGeometry y="60" width="140" height="30" as="geometry" />
        </mxCell>
        <mxCell id="oGMS3Zo7ZqheVyag8jF_-25" value="Description: text" style="text;strokeColor=none;fillColor=none;align=left;verticalAlign=middle;spacingLeft=4;spacingRight=4;overflow=hidden;points=[[0,0.5],[1,0.5]];portConstraint=eastwest;rotatable=0;whiteSpace=wrap;html=1;" parent="7i9hANt-WhcfdzAU3B-O-6" vertex="1">
          <mxGeometry y="90" width="140" height="30" as="geometry" />
        </mxCell>
        <mxCell id="oGMS3Zo7ZqheVyag8jF_-123" value="Id: pk" style="text;align=left;verticalAlign=middle;spacingLeft=4;spacingRight=4;overflow=hidden;points=[[0,0.5],[1,0.5]];portConstraint=eastwest;rotatable=0;whiteSpace=wrap;html=1;shadow=0;rounded=0;strokeWidth=1;strokeColor=default;container=0;" parent="7i9hANt-WhcfdzAU3B-O-6" vertex="1">
          <mxGeometry y="210" width="140" height="30" as="geometry" />
        </mxCell>
      </root>
    </mxGraphModel>
  </diagram>
</mxfile>
